SplineFontDB: 3.0
FontName: PatentCure
FullName: Patent Cure
FamilyName: Patent Cure
Weight: Heavy
Copyright: Created by Justin Sheckler with FontForge 2.0 (http://fontforge.sf.net)
UComments: "2013-3-23: Created." 
Version: 001.000
ItalicAngle: 0
UnderlinePosition: -100
UnderlineWidth: 50
Ascent: 760
Descent: 240
LayerCount: 2
Layer: 0 0 "Back"  1
Layer: 1 0 "Fore"  0
XUID: [1021 691 -1653312711 7448654]
FSType: 0
OS2Version: 0
OS2_WeightWidthSlopeOnly: 0
OS2_UseTypoMetrics: 1
CreationTime: 1364069233
ModificationTime: 1364751723
PfmFamily: 17
TTFWeight: 800
TTFWidth: 5
LineGap: 90
VLineGap: 90
OS2TypoAscent: 0
OS2TypoAOffset: 1
OS2TypoDescent: 0
OS2TypoDOffset: 1
OS2TypoLinegap: 90
OS2WinAscent: 0
OS2WinAOffset: 1
OS2WinDescent: 0
OS2WinDOffset: 1
HheadAscent: 0
HheadAOffset: 1
HheadDescent: 0
HheadDOffset: 1
OS2Vendor: 'PfEd'
Lookup: 258 0 0 "kern"  {"kern-1" [150,15,0] } ['kern' ('DFLT' <'dflt' > 'latn' <'dflt' > ) ]
MarkAttachClasses: 1
DEI: 91125
LangName: 1033 
Encoding: ISO8859-1
UnicodeInterp: none
NameList: AGL For New Fonts
DisplaySize: -48
AntiAlias: 1
FitToEm: 1
WidthSeparation: 50
WinInfo: 54 9 9
BeginPrivate: 0
EndPrivate
TeXData: 1 0 0 52428 26214 17476 0 1048576 17476 783286 444596 497025 792723 393216 433062 380633 303038 157286 324010 404750 52429 2506097 1059062 262144
BeginChars: 256 256

StartChar: J
Encoding: 74 74 0
Width: 701
VWidth: 0
Flags: W
HStem: 0 240<20.9873 140.987 165 200.987> 0 151.755<202.786 379.723> 570 150<260.987 380.987 560.987 680.987>
VStem: 20.9873 120<0 90> 380.987 180.987<152.729 570>
LayerCount: 2
UndoRedoHistory
Layer: 1
Undoes
EndUndoes
Redoes
EndRedoes
EndUndoRedoHistory
Fore
SplineSet
260.987304688 720.002929688 m 5x78
 260.987304688 720 l 5
 681.974609375 720.002929688 l 5
 680.987304688 570 l 5
 560.987304688 570 l 5
 561.974609375 120.002929688 l 6
 561.974609375 28.9453125 531.5390625 0.00390625 441.974609375 0.0029296875 c 6
 230.987304688 0 l 6x78
 171.20703125 0 140.987304688 30.2197265625 140.987304688 90 c 6
 140.987304688 0 l 5
 20.9873046875 0 l 5
 20 239.997070312 l 5
 200.987304688 240 l 5xb8
 200.987304688 210 l 6
 200.987304688 150 200.987304688 150 260.219726562 151.754882812 c 5
 319.78125 151.754882812 l 6
 380.236328125 151.754882812 380.987304688 148.797851562 380.987304688 210 c 6
 380.987304688 570 l 5
 260.987304688 570 l 5
 260.987304688 720.002929688 l 5x78
EndSplineSet
Validated: 524325
EndChar

StartChar: K
Encoding: 75 75 1
Width: 830
VWidth: 0
Flags: W
HStem: 0 150<25 145 350.173 444.875 656.216 805> 570 150<25.0361 145 325 384.893 475 505 702.595 805>
VStem: 145 180<353.011 570>
LayerCount: 2
UndoRedoHistory
Layer: 1
Undoes
EndUndoes
Redoes
EndRedoes
EndUndoRedoHistory
Fore
SplineSet
25 720 m 1
 384.892578125 720.177734375 l 1
 384.982421875 570 l 1
 325 570 l 1
 325 353.010742188 l 1
 505 567.526367188 l 1
 475 570 l 1
 475 720.142578125 l 1
 805.22265625 720.142578125 l 1
 805 570 l 1
 702.594726562 570 l 1
 532.586914062 367.391601562 l 1
 532.586914062 367.391601562 602.327148438 150.133789062 714.794921875 150.133789062 c 2
 805 150 l 1
 805 0 l 1
 687.802734375 0 l 2
 504.857421875 0 439.654296875 256.639648438 439.654296875 256.639648438 c 1
 350.172851562 150 l 1
 445 150 l 1
 444.875 0 l 1
 25 0 l 1
 25 150 l 1
 145 150 l 1
 145 570 l 1
 25.0361328125 570 l 1
 25 720 l 1
EndSplineSet
Validated: 524289
EndChar

StartChar: S
Encoding: 83 83 2
Width: 648
VWidth: 0
Flags: W
HStem: 0 240.009<24.1074 143.965 167.886 204.124> 0 150<205.693 442.43> 270 179.822<205.583 442.428> 479.911 240<443.911 480.025 503.946 624> 569.858 150.23<204.866 442.244>
VStem: 24.1074 180.017<151.606 240.009 450.77 569.251> 443.911 180.089<151.865 268.135 480 568.315> 503.946 120.143<629.938 719.911>
LayerCount: 2
UndoRedoHistory
Layer: 1
Undoes
EndUndoes
Redoes
EndRedoes
EndUndoRedoHistory
Fore
SplineSet
144.053710938 720.088867188 m 2x6e
 413.973632812 719.911132812 l 2
 473.955078125 719.911132812 503.946289062 689.919921875 503.946289062 629.938476562 c 2
 503.946289062 719.911132812 l 1x35
 624.088867188 720.088867188 l 1x2d
 624 480 l 1
 443.911132812 479.911132812 l 1x36
 443.911132812 509.90234375 l 2
 443.911132812 569.884765625 443.911132812 569.884765625 383.928710938 569.884765625 c 2
 263.928710938 569.858398438 l 2
 203.911132812 569.911132812 203.43359375 573.967773438 204 510 c 0
 204.56640625 446.032226562 204 450 264.0703125 449.822265625 c 2
 504 450 l 2
 593.973632812 450 624 419.973632812 624 330 c 2
 624 120 l 2
 624 30.0263671875 593.831054688 0 503.857421875 0 c 2
 233.9375 0 l 2
 173.955078125 0 143.96484375 29.9912109375 143.96484375 89.9736328125 c 2
 144 0 l 1
 24 0 l 1x6e
 24.107421875 240.149414062 l 1
 204.124023438 240.008789062 l 1xa6
 204.124023438 210.017578125 l 2
 204.124023438 150.036132812 204.124023438 150.036132812 264.106445312 150.036132812 c 2
 264.106445312 150.036132812 324 150 384 150 c 0
 444 150 444 151.58984375 444 210 c 0
 444 268.41015625 444 270 383.9296875 270 c 2
 144 270 l 2
 54.02734375 270 24 300.026367188 24 390 c 2
 24.0888671875 599.946289062 l 2
 24.0888671875 688.421875 54.080078125 720.088867188 144.053710938 720.088867188 c 2x6e
EndSplineSet
Validated: 524325
EndChar

StartChar: W
Encoding: 87 87 3
Width: 1128
VWidth: 0
Flags: W
HStem: 0 21G<249.271 451.279 676.721 878.382> 564.18 155.82<24 143.493 321.476 414 714 806.524 984.16 1104>
LayerCount: 2
UndoRedoHistory
Layer: 1
Undoes
EndUndoes
Redoes
EndRedoes
EndUndoRedoHistory
Fore
SplineSet
24 564.1796875 m 1
 24 720 l 1
 414 720 l 1
 414 564.1796875 l 1
 321.475585938 564.1796875 l 1
 377.959960938 243.837890625 l 1
 540.923828125 717.1171875 l 1
 585.973632812 720.3203125 l 1
 750.040039062 243.837890625 l 1
 806.524414062 564.1796875 l 1
 714 564.1796875 l 1
 714 720 l 1
 1104 720 l 1
 1104 564.1796875 l 1
 984.16015625 564.1796875 l 1
 874.494140625 0 l 1
 684 0 l 1
 564 329.697265625 l 1
 444 0 l 1
 253.158203125 0 l 1
 143.493164062 564.1796875 l 1
 24 564.1796875 l 1
EndSplineSet
Validated: 524289
EndChar

StartChar: A
Encoding: 65 65 4
Width: 887
VWidth: 0
Flags: W
HStem: 0 150<23 137.596 311.738 413 473 574.262 748.404 863> 240 150<389.719 496.281> 570 150<173 290.463>
LayerCount: 2
UndoRedoHistory
Layer: 1
Undoes
EndUndoes
Redoes
EndRedoes
EndUndoRedoHistory
Fore
SplineSet
173 720 m 1
 540.94140625 720 l 1
 748.404296875 150 l 1
 863 150 l 1
 863 0 l 1
 473 0 l 1
 473 150 l 1
 574.26171875 150 l 1
 545.01953125 240 l 1
 340.98046875 240 l 1
 311.73828125 150 l 1
 413 150 l 1
 413 0 l 1
 23 0 l 1
 23 150 l 1
 137.595703125 150 l 1
 290.462890625 570 l 1
 173 570 l 1
 173 720 l 1
443 553.983398438 m 1
 389.71875 390 l 1
 496.28125 390 l 1
 443 553.983398438 l 1
EndSplineSet
Validated: 524289
EndChar

StartChar: B
Encoding: 66 66 5
Width: 702
VWidth: 0
Flags: W
HStem: 0 150<21 141 321 499.608> 270 180<321 499.376> 570 150<21 141 321 499.808>
VStem: 141 180<150 270 450 570> 500.845 180.155<151.511 267.417 452.583 568.665>
CounterMasks: 1 e0
LayerCount: 2
UndoRedoHistory
Layer: 1
Undoes
EndUndoes
Redoes
EndRedoes
EndUndoRedoHistory
Fore
SplineSet
21 720 m 1
 21 720 471.438476562 720 561 720 c 0
 650.561523438 720 681 659.5703125 681 570 c 2
 681 480 l 2
 681 390 651 360 591 360 c 1
 651 360 681 330 681 240 c 2
 681 150 l 2
 681 60.2119140625 651.979492188 0 561 0 c 0
 470.020507812 0 21 0 21 0 c 1
 21 150 l 1
 141 150 l 1
 141 570 l 1
 21 570 l 1
 21 720 l 1
321 570 m 1
 321 450 l 1
 441 450 l 2
 501 450 501 450 501 510 c 0
 501.859375 570 501 570 441 570 c 2
 321 570 l 1
321 270 m 1
 321 150 l 1
 441 150 l 2
 501 150 501 150 500.844726562 207.763671875 c 0
 501 270 501 270 441 270 c 2
 321 270 l 1
EndSplineSet
Validated: 524321
EndChar

StartChar: C
Encoding: 67 67 6
Width: 648
VWidth: 0
Flags: W
HStem: 0 240<444 480.072 504 624> 0 150.001<205.571 442.279> 480 240<444 480.071 504 624> 569.996 150.004<205.57 442.278>
VStem: 24 180.001<151.571 568.425> 444 180<151.566 240 480 568.363> 504 120<0 90 630 719.999>
LayerCount: 2
UndoRedoHistory
Layer: 1
Undoes
EndUndoes
Redoes
EndRedoes
EndUndoRedoHistory
Fore
SplineSet
24 600.001953125 m 0x4a
 24 690.001953125 54 720 144 720 c 2
 413.999023438 720 l 2x5a
 473.999023438 720 503.999023438 690 503.999023438 630 c 2
 504 720 l 1x2a
 624.000976562 719.999023438 l 1
 624 480 l 1
 444 480 l 1x2c
 444 507.447265625 l 2
 444 570 444 570 384 570 c 2
 264 569.99609375 l 2
 204 569.994140625 204 569.99609375 204 509.99609375 c 2
 204.000976562 210 l 2
 204.000976562 150.000976562 204.000976562 150.000976562 264.000976562 150.000976562 c 2x5c
 384.000976562 150 l 2
 444.000976562 150 444.000976562 150 444 209.859375 c 2
 444 240 l 1
 624 240 l 1x8c
 624 0 l 1
 504 0 l 1x8a
 504 90 l 2
 504 30 474 0 414 0 c 2
 144 0 l 2
 54 0 24 30.0009765625 24 120.000976562 c 0
 24 210.000976562 24 509.999023438 24 600.001953125 c 0x4a
EndSplineSet
Validated: 524321
EndChar

StartChar: D
Encoding: 68 68 7
Width: 734
VWidth: 0
Flags: W
HStem: 0 150.212<22.2988 141.565 322.006 530.477> 570 150<22.2988 141.56 322.299 531.157>
VStem: 141.565 180.44<150.212 569.786> 532.299 180.08<151.601 569.43>
LayerCount: 2
UndoRedoHistory
Layer: 1
Undoes
EndUndoes
Redoes
EndRedoes
EndUndoRedoHistory
Fore
SplineSet
22.298828125 720 m 1
 592.298828125 720 l 2
 681.96875 720 712.000976562 689.681640625 712.298828125 600 c 2
 712.37890625 119.859375 l 2
 712.677734375 29.9658203125 682.4140625 -0.056640625 591.325195312 0 c 2
 22.298828125 0 l 1
 22.005859375 150.0703125 l 1
 141.565429688 150.0703125 l 1
 141.559570312 569.786132812 l 1
 22 569.786132812 l 1
 22.298828125 720 l 1
322.298828125 570 m 1
 322.005859375 150.211914062 l 1
 471.174804688 150.071289062 l 2
 531.103515625 150.014648438 532.298828125 150 532.298828125 210 c 2
 532.298828125 510 l 2
 532.298828125 571.2109375 533.428710938 571.28125 472.298828125 570 c 1
 322.298828125 570 l 1
EndSplineSet
Validated: 524321
EndChar

StartChar: E
Encoding: 69 69 8
Width: 739
VWidth: 0
Flags: W
HStem: 0 240<534 570.072 594 714> 0 150<24 144 324 532.279> 270 180<324 474> 480 240<534 570.072 594 714> 570 150<24 144 324 532.279>
VStem: 144 180<150 270 450 570> 534 180<151.57 240 480 568.42> 594 120<0 90 630 720>
LayerCount: 2
UndoRedoHistory
Layer: 1
Undoes
EndUndoes
Redoes
EndRedoes
EndUndoRedoHistory
Fore
SplineSet
24 720 m 1x6d
 504 720 l 2x6d
 564 720 594 690 594 630 c 2
 594 720 l 1
 714 720 l 1x35
 714 480 l 1
 534 480 l 1x36
 534 509.611328125 l 2
 534 570 534 570 474 570 c 2
 324 570 l 1
 324 450 l 1
 474 450 l 1
 474 270 l 1
 324 270 l 1
 324 150 l 1
 474 150 l 2x6e
 534 150 534 150 534 210 c 2
 534 240 l 1
 714 240 l 1xa6
 714 0 l 1
 594 0 l 1xa5
 594 90 l 2
 594 30 564 0 504 0 c 2
 24 0 l 1
 24 150 l 1
 144 150 l 1
 144 570 l 1
 24 570 l 1
 24 720 l 1x6d
EndSplineSet
Validated: 524289
EndChar

StartChar: F
Encoding: 70 70 9
Width: 738
VWidth: 0
Flags: W
HStem: 0 150<24 144 324 444> 270 180<324 444> 480 240<534 570.072 594.374 714> 570 150<24 144 324 532.279>
VStem: 144 180<150 270 450 570> 594 120<630 720>
LayerCount: 2
UndoRedoHistory
Layer: 1
Undoes
EndUndoes
Redoes
EndRedoes
EndUndoRedoHistory
Fore
SplineSet
24 720 m 1xdc
 504 720 l 2xdc
 564 720 594 690 594 630 c 2
 594.374023438 720 l 1
 714 720 l 1
 714 480 l 1
 534 480 l 1xec
 534 509.611328125 l 2
 534 570 534 570 474 570 c 2
 324 570 l 1
 324 450 l 1
 444 450 l 1
 444 270 l 1
 324 270 l 1
 324 150 l 1
 444 150 l 1
 444 0 l 1
 24 0 l 1
 24 150 l 1
 144 150 l 1
 144 570 l 1
 24 570 l 1
 24 720 l 1xdc
EndSplineSet
Validated: 524289
EndChar

StartChar: G
Encoding: 71 71 10
Width: 679
VWidth: 0
Flags: W
HStem: 0 149.665<205.459 471.214> 240 120.754<354 473.921> 480 240<474 509.436 534 654> 568.837 151.163<205.234 471.215>
VStem: 24 180<151.035 567.698> 474 180<151.601 239.215 480 568.026> 534 120<630 720>
LayerCount: 2
UndoRedoHistory
Layer: 1
Undoes
EndUndoes
Redoes
EndRedoes
EndUndoRedoHistory
Fore
SplineSet
24 600 m 2xda
 24 689.748046875 54.251953125 720 144 720 c 2xda
 442.91015625 719.999023438 l 2
 502.7421875 719.999023438 534 689.83203125 534 630 c 2
 534 720 l 1
 654 720 l 1xea
 654 480 l 1
 474 480 l 1xec
 474 510 l 2
 474 570 474 570 412.909179688 568.836914062 c 1
 263.328125 568.836914062 l 2
 203.49609375 568.836914062 204 569.83203125 204 510 c 2
 204 210 l 2
 204 150.16796875 203.497070312 149.532226562 263.328125 149.665039062 c 2
 414 150 l 2
 473.83203125 150 474 150.16796875 474 210 c 0xdc
 474 240 474 240 414 240 c 2
 354 240 l 1
 352.91015625 360.75390625 l 1
 654 360 l 1
 654 0 l 1
 532.657226562 0.1796875 l 1
 534 90 l 2
 534 30.16796875 502.741210938 0.1796875 442.908203125 0.1796875 c 2
 143.663085938 0 l 2
 53.9150390625 -0.0537109375 24 29.9169921875 24 119.665039062 c 2
 24 600 l 2xda
EndSplineSet
Validated: 524325
EndChar

StartChar: H
Encoding: 72 72 11
Width: 860
VWidth: 0
Flags: W
HStem: 0 150<25 145 325 385 475 535 715 835> 270 180<325 535> 570 150<25 145 325 385 475 535 715 835>
VStem: 25 360<0 150 570 720> 145 180<150 270 450 570> 475 360<0 150 570 720> 535 180<150 270 450 570>
CounterMasks: 1 e0
LayerCount: 2
UndoRedoHistory
Layer: 1
Undoes
EndUndoes
Redoes
EndRedoes
EndUndoRedoHistory
Fore
SplineSet
835 720 m 1xe4
 835 570 l 1xe4
 715 570 l 1
 715 150 l 1xe2
 835 150 l 1
 835 0 l 1
 475 0 l 1
 475 150 l 1xe4
 535 150 l 1
 535 270 l 1
 325 270 l 1
 325 150 l 1xea
 385 150 l 1
 385 0 l 1
 25 0 l 1
 25 150 l 1xf0
 145 150 l 1
 145 570 l 1xe8
 25 570 l 1
 25 720 l 1
 385 720 l 1
 385 570 l 1xf0
 325 570 l 1
 325 450 l 1
 535 450 l 1
 535 570 l 1xea
 475 570 l 1
 475 720 l 1
 835 720 l 1xe4
EndSplineSet
Validated: 1
EndChar

StartChar: I
Encoding: 73 73 12
Width: 469
VWidth: 0
Flags: W
HStem: 0 150<25.001 145 325 444.999> 570 150<25.001 145 325 445>
VStem: 145 180<150 570>
LayerCount: 2
UndoRedoHistory
Layer: 1
Undoes
EndUndoes
Redoes
EndRedoes
EndUndoRedoHistory
Fore
SplineSet
445 720 m 1
 445 570 l 1
 325 570 l 1
 325 150 l 1
 445 150 l 1
 444.999023438 0 l 1
 25 0 l 1
 25.0009765625 150 l 1
 145 150 l 1
 145 570 l 1
 25.0009765625 570 l 1
 25.0009765625 720 l 1
 445 720 l 1
EndSplineSet
Validated: 524289
EndChar

StartChar: L
Encoding: 76 76 13
Width: 766
VWidth: 0
Flags: W
HStem: 0 239.914<563.157 599.05 623 743> 0 149.429<23.5645 143.45 323.278 561.258> 570 149.821<23.3994 143.399 323.114 442.6>
VStem: 143.45 179.828<149.429 569.886> 563.082 180.375<151.529 239.543> 623 120<0 90>
LayerCount: 2
UndoRedoHistory
Layer: 1
Undoes
EndUndoes
Redoes
EndRedoes
EndUndoRedoHistory
Fore
SplineSet
442.599609375 719.82421875 m 1x74
 443 570 l 1
 323.114257812 570 l 1
 323.278320312 149.428710938 l 1x74
 503 150 l 2
 562.942382812 150 562.942382812 150 563.08203125 208.444335938 c 2
 563.157226562 239.9140625 l 1
 743.45703125 239.54296875 l 1xb8
 743 0 l 1
 623 0 l 1xb4
 623 90 l 2
 623 30.056640625 592.942382812 0 533 0 c 2
 23 0 l 1
 23.564453125 149.428710938 l 1
 143.450195312 149.428710938 l 1
 143.399414062 569.885742188 l 1
 23.3994140625 570 l 1
 23 720 l 1
 442.599609375 719.821289062 l 1
 442.599609375 719.82421875 l 1x74
EndSplineSet
Validated: 524289
EndChar

StartChar: M
Encoding: 77 77 14
Width: 1070
VWidth: 0
Flags: W
HStem: 0 150<25.001 145 325 384.999 685.001 745.001 924.998 1045> 570 150<25 145 924.998 1045>
VStem: 145 180<150 424.054> 745.001 179.997<150 424.054>
LayerCount: 2
UndoRedoHistory
Layer: 1
Undoes
EndUndoes
Redoes
EndRedoes
EndUndoRedoHistory
Fore
SplineSet
25 720 m 1
 355 720 l 1
 535 295.946289062 l 1
 715 720 l 1
 1044.99804688 720 l 1
 1044.99804688 570 l 1
 924.998046875 570 l 1
 924.998046875 150 l 1
 1044.99804688 150 l 1
 1044.99804688 0 l 1
 684.999023438 0 l 1
 685.000976562 150 l 1
 745.000976562 150 l 1
 745 424.053710938 l 1
 565 0 l 1
 505 0 l 1
 325 424.053710938 l 1
 325 150 l 1
 385 150 l 1
 384.999023438 0 l 1
 25 0 l 1
 25.0009765625 150 l 1
 145 150 l 1
 145 570 l 1
 25 570 l 1
 25 720 l 1
EndSplineSet
Validated: 524289
EndChar

StartChar: N
Encoding: 78 78 15
Width: 886
VWidth: 0
Flags: W
HStem: 0 150<23 143 323 413> 570 150<23 143 473 563 743 863>
VStem: 143 180<150 432.972> 563 180<287.028 570>
LayerCount: 2
UndoRedoHistory
Layer: 1
Undoes
EndUndoes
Redoes
EndRedoes
EndUndoRedoHistory
Fore
SplineSet
23 720 m 1
 327.307617188 720 l 1
 563 287.028320312 l 1
 563 570 l 1
 473 570 l 1
 473 720 l 1
 863 720 l 1
 863 570 l 1
 743 570 l 1
 743 0 l 1
 563 0 l 1
 323 432.971679688 l 1
 323 150 l 1
 413 150 l 1
 413 0 l 1
 23 0 l 1
 23 150 l 1
 143 150 l 1
 143 570 l 1
 23 570 l 1
 23 720 l 1
EndSplineSet
Validated: 524289
EndChar

StartChar: O
Encoding: 79 79 16
Width: 648
VWidth: 0
Flags: W
HStem: 0.000976562 149.999<205.57 442.43> 570 150<205.57 441.083>
VStem: 24 180<151.57 568.43> 444 180<151.57 568.43>
LayerCount: 2
UndoRedoHistory
Layer: 1
Undoes
EndUndoes
Redoes
EndRedoes
EndUndoRedoHistory
Fore
SplineSet
144 720 m 6
 504 720 l 6
 593.775390625 720 623.326171875 690 624 600 c 6
 624 120 l 5
 621.302734375 29.9990234375 595.197265625 -0.0009765625 504 0 c 6
 146.697265625 0.0009765625 l 6
 54 0 24 30 24 120 c 6
 24 600 l 6
 24 690 54 720 144 720 c 6
264 570 m 6
 204 570 204 570 204 510 c 6
 204 210 l 6
 204 150 204 150 264 150 c 6
 384 150 l 6
 444 150 444 150 444 210 c 6
 442.5 509.999023438 l 6
 442.125 570.001953125 444 570 384 570 c 6
 264 570 l 6
EndSplineSet
Validated: 524321
EndChar

StartChar: P
Encoding: 80 80 17
Width: 732
VWidth: 0
Flags: W
HStem: 0.353516 149.646<21.6514 141.211 321 441> 270 150<321 529.912> 569.857 150.214<21 140.56 321 529.807>
VStem: 140.56 180.44<150 270 420 569.857> 531.495 180<421.585 568.221>
LayerCount: 2
UndoRedoHistory
Layer: 1
Undoes
EndUndoes
Redoes
EndRedoes
EndUndoRedoHistory
Fore
SplineSet
21 720 m 1
 21 720 501.825195312 720.071289062 591.495117188 720.071289062 c 0
 681.165039062 720.071289062 711.495117188 689.75390625 711.495117188 600.071289062 c 2
 711.495117188 390.071289062 l 2
 711.495117188 300.177734375 680.65234375 270.095703125 590.015625 270.071289062 c 2
 321 270 l 1
 321 150 l 1
 441.353515625 149.788085938 l 1
 441 0 l 1
 21 0.353515625 l 1
 21.6513671875 149.999023438 l 1
 141.2109375 149.999023438 l 1
 140.559570312 570 l 1
 21 570 l 1
 21 720 l 1
321 569.857421875 m 1
 321 420 l 1
 471 420 l 2
 531.495117188 420 531.495117188 420.071289062 531.495117188 480.071289062 c 2
 531.495117188 510.071289062 l 2
 531.495117188 570.071289062 530.928710938 569.715820312 471 569.715820312 c 2
 321 569.857421875 l 1
EndSplineSet
Validated: 524321
EndChar

StartChar: Q
Encoding: 81 81 18
Width: 649
VWidth: 0
Flags: W
HStem: -180 120<384 564> 0 150<205.57 264 384 442.43> 570 150<205.57 442.575>
VStem: 24 180<151.57 568.43> 264 120<-60 0 150 210> 444 180<151.57 568.43>
CounterMasks: 1 1c
LayerCount: 2
UndoRedoHistory
Layer: 1
Undoes
EndUndoes
Redoes
EndRedoes
EndUndoRedoHistory
Fore
SplineSet
144 720 m 2
 501.302734375 719.999023438 l 2
 591.079101562 719.999023438 624 689.788085938 624 600 c 2
 624 120 l 2
 624 30 594 0 504 0 c 2
 384 0 l 1
 384 -60 l 1
 564 -60 l 1
 564 -180 l 1
 384 -180 l 2
 294 -180 264 -150 264 -60 c 0
 264 -30 264 0 264 0 c 1
 144 0 l 2
 54 0 24 30 24 120 c 2
 24 600 l 2
 24 690 54 720 144 720 c 2
264 570 m 2
 204 570 204 570 204 510 c 2
 204 210 l 2
 204 150 204 150 264 150 c 1
 264 210 l 1
 384 210 l 1
 384 150 l 1
 444 150 444 150 444 210 c 2
 444 510 l 2
 444.330078125 570 444 570 384 570 c 2
 264 570 l 2
EndSplineSet
Validated: 524321
EndChar

StartChar: R
Encoding: 82 82 19
Width: 764
VWidth: 0
Flags: W
HStem: 0 150<23 143 323 443 683.039 743> 270 180<323 501.43> 570 150<23 143 323 501.43>
VStem: 143 180<150 270 450 570> 503 240<31.8232 150> 503 180<150.039 269.961 451.57 568.43>
CounterMasks: 1 e0
LayerCount: 2
UndoRedoHistory
Layer: 1
Undoes
EndUndoes
Redoes
EndRedoes
EndUndoRedoHistory
Fore
SplineSet
23 720 m 1xf4
 563 720 l 2
 653 720 683 720 683 630 c 2
 683 450 l 2
 683 390 653 360 593 360 c 1
 653 360 683 330 683 270 c 2
 683 180 l 2xf4
 683 150 683 150 713 150 c 2
 743 150 l 1
 743 0 l 1
 623 0 l 2
 533 0 503 30 503 120 c 2xf8
 503 240 l 2
 503 270 503 270 473 270 c 2
 323 270 l 1
 323 150 l 1
 443 150 l 1
 443 0 l 1
 23 0 l 1
 23 150 l 1
 143 150 l 1
 143 570 l 1
 23 570 l 1
 23 720 l 1xf4
323 570 m 1
 323 450 l 1
 443 450 l 2
 503 450 503 450 503 510 c 0
 503 570 503 570 443 570 c 2
 323 570 l 1
EndSplineSet
Validated: 1
EndChar

StartChar: T
Encoding: 84 84 20
Width: 830
VWidth: 0
Flags: W
HStem: 0 150<205 325 505 625> 510 210<25 145 168.928 205 625 661.072 685 805> 570 150<206.721 325 505 623.279>
VStem: 25 120<630 720> 325 180<150 570> 685 120<630 720>
CounterMasks: 1 1c
LayerCount: 2
UndoRedoHistory
Layer: 1
Undoes
EndUndoes
Redoes
EndRedoes
EndUndoRedoHistory
Fore
SplineSet
805 720 m 1xdc
 805 510 l 1
 625 510 l 1xdc
 625 570 625 570 565 570 c 2
 505 570 l 1
 505 150 l 1
 625 150 l 1
 625 0 l 1
 205 0 l 1
 205 150 l 1
 325 150 l 1
 325 570 l 1
 265 570 l 2xbc
 205 570 205 570 205 511.603515625 c 1
 25 510 l 1
 25 720 l 1
 145 720 l 1xdc
 145 630 l 2
 145 690 175 720 235 720 c 2
 595 720 l 2xbc
 655 720 685 690 685 630 c 2
 685 720 l 1
 805 720 l 1xdc
EndSplineSet
Validated: 524289
EndChar

StartChar: U
Encoding: 85 85 21
Width: 856
VWidth: 0
Flags: W
HStem: 0 150<324.57 531.43> 570 150<23 143 323 383 473 533 713 833>
VStem: 143 180<151.57 570> 533 180<151.57 570>
LayerCount: 2
UndoRedoHistory
Layer: 1
Undoes
EndUndoes
Redoes
EndRedoes
EndUndoRedoHistory
Fore
SplineSet
23 720 m 1
 383 720 l 1
 383 570 l 1
 323 570 l 1
 323 210 l 2
 323 150 323 150 383 150 c 2
 473 150 l 2
 533 150 533 150 533 210 c 2
 533 570 l 1
 473 570 l 1
 473 720 l 1
 833 720 l 1
 833 570 l 1
 713 570 l 1
 713 120 l 2
 713 30 683 0 593 0 c 2
 263 0 l 2
 173 0 143 30 143 120 c 2
 143 570 l 1
 23 570 l 1
 23 720 l 1
EndSplineSet
Validated: 1
EndChar

StartChar: V
Encoding: 86 86 22
Width: 858
VWidth: 0
Flags: W
HStem: 0 21G<345.919 512.081> 570 150<24 123.705 318.596 384 474 539.404 734.295 834>
LayerCount: 2
UndoRedoHistory
Layer: 1
Undoes
EndUndoes
Redoes
EndRedoes
EndUndoRedoHistory
Fore
SplineSet
834 720 m 1
 834 570 l 1
 734.294921875 570 l 1
 504 0 l 1
 354 0 l 1
 123.705078125 570 l 1
 24 570 l 1
 24 720 l 1
 384 720 l 1
 384 570 l 1
 318.595703125 570 l 1
 429 266.666015625 l 1
 539.404296875 570 l 1
 474 570 l 1
 474 720 l 1
 834 720 l 1
EndSplineSet
Validated: 524289
EndChar

StartChar: X
Encoding: 88 88 23
Width: 830
VWidth: 0
Flags: W
HStem: 0 150<25 178.824 651.176 805> 570 150<25 178.824 651.176 805>
LayerCount: 2
UndoRedoHistory
Layer: 1
Undoes
EndUndoes
Redoes
EndRedoes
EndUndoRedoHistory
Fore
SplineSet
25 720 m 1
 295 720 l 1
 415 527.959960938 l 1
 535 720 l 1
 805 720 l 1
 805 570 l 1
 651.17578125 570 l 1
 520.046875 360 l 1
 651.17578125 150 l 1
 805 150 l 1
 805 0 l 1
 535 0 l 1
 415.046875 191.96484375 l 1
 295.09375 0 l 1
 25 0 l 1
 25 150 l 1
 178.82421875 150 l 1
 310.046875 360 l 1
 178.82421875 570 l 1
 25 570 l 1
 25 720 l 1
EndSplineSet
Validated: 524289
EndChar

StartChar: Y
Encoding: 89 89 24
Width: 828
VWidth: 0
Flags: W
HStem: 0 150<204 324 504 624> 570 150<24 121.555 301.555 384 444 526.445 706.445 804>
LayerCount: 2
UndoRedoHistory
Layer: 1
Undoes
EndUndoes
Redoes
EndRedoes
EndUndoRedoHistory
Fore
SplineSet
24 720 m 1
 384 720 l 1
 384 570 l 1
 301.5546875 570 l 1
 414 390.049804688 l 1
 526.4453125 570 l 1
 444 570 l 1
 444 720 l 1
 804 720 l 1
 804 570 l 1
 706.4453125 570 l 1
 504 235.688476562 l 1
 504 150 l 1
 624 150 l 1
 624 0 l 1
 504 0 l 1
 324 0 l 1
 204 0 l 1
 204 150 l 1
 324 150 l 1
 324 235.688476562 l 1
 121.5546875 570 l 1
 24 570 l 1
 24 720 l 1
EndSplineSet
Validated: 524289
EndChar

StartChar: Z
Encoding: 90 90 25
Width: 650
VWidth: 0
Flags: W
HStem: 0 240<445 481.072 505 625> 0 150<235 443.279> 480 240<25 145 169.294 205.001> 570 150<207.087 415>
VStem: 25 120.366<630 720> 445 180<151.57 240> 505 120<0 90>
LayerCount: 2
UndoRedoHistory
Layer: 1
Undoes
EndUndoes
Redoes
EndRedoes
EndUndoRedoHistory
Fore
SplineSet
25 720 m 1x2a
 145 720 l 1x2a
 145.366210938 630 l 2
 145.366210938 690 175.366210938 720 235.366210938 720 c 2
 624.999023438 720 l 1
 625 570 l 1
 235 150 l 1
 385 150 l 2x5a
 445 150 445 150 445 210 c 2
 445 240 l 1
 625 240 l 1x8c
 625 0 l 1
 505 0 l 1x8a
 505 90 l 2
 505 30 475 0 415 0 c 2
 25 0 l 1
 25 150 l 1
 415 570 l 1
 265.000976562 570 l 2x5a
 205.000976562 570 205.000976562 570 205.000976562 510 c 2
 205.000976562 480 l 1
 25 480 l 1
 25 720 l 1x2a
EndSplineSet
Validated: 524289
EndChar

StartChar: a
Encoding: 97 97 97
Width: 550
VWidth: 0
Flags: W
HStem: 0 120<170.039 319.719 470 530> 180 120<170.025 319.961> 330 150<50 140 149.27 200> 360 120<200.293 319.975>
VStem: 20 150<120.04 179.961> 50 90<420 480> 320 150<120.049 179.961 300.039 360.104>
LayerCount: 2
UndoRedoHistory
Layer: 1
Undoes
EndUndoes
Redoes
EndRedoes
EndUndoRedoHistory
Fore
SplineSet
50 480 m 1xe6
 140 480 l 1xe6
 140 420 l 2
 140 450 140 480 230 480 c 2
 350 480 l 2
 440 480 470 450 470 360 c 2
 470 120 l 1
 530 120 l 1
 530 0 l 1
 410 0 l 2
 380 0 350 30 350 60 c 1
 350 30 320 0 290 0 c 2
 140 0 l 2xd6
 50 0 20 30 20 120 c 2
 20 180 l 2xda
 20 270 50 300 140 300 c 2
 290 300 l 2
 320 300 320 300 320 330 c 0xe6
 320 364.485351562 320 360 290 360 c 2
 230 360 l 2xd6
 200 360 200 360 200 330 c 1
 50 330 l 1
 50 480 l 1xe6
200 180 m 2
 170 180 170 180 170 150.51171875 c 0xca
 170 120 170 120 200 120 c 2
 290 120 l 2
 317.6796875 120.036132812 320 120 320 150 c 0
 320 180 320 180 290 180 c 2
 200 180 l 2
EndSplineSet
Validated: 524321
EndChar

StartChar: b
Encoding: 98 98 98
Width: 548
VWidth: 0
Flags: W
HStem: 0 120<243.685 376.961> 360 120<242.688 376.961> 600 120<17 77>
VStem: 17 210<600 720> 77 150<16.6855 60 120 360 420 600> 377 150<120.039 359.961>
LayerCount: 2
UndoRedoHistory
Layer: 1
Undoes
EndUndoes
Redoes
EndRedoes
EndUndoRedoHistory
Fore
SplineSet
17 720 m 1xf4
 227 720 l 1xf4
 227 420 l 2
 227 452.696289062 257 480 287 480 c 2
 407 480 l 2
 497 480 527 450 527 360 c 2
 527 120 l 2
 527 30 497 0 407 0 c 2
 287 0 l 2
 257 0 227 30 227 60 c 1
 227 30 197 0 167 0 c 2
 77 0 l 1
 77 600 l 1xec
 17 600 l 1
 17 720 l 1xf4
227 360 m 1xec
 227 120 l 1
 347 120 l 2
 377 120 377 120 377 150 c 2
 377 330 l 2
 377 360 377 360 347 360 c 2
 227 360 l 1xec
EndSplineSet
Validated: 524289
EndChar

StartChar: c
Encoding: 99 99 99
Width: 499
VWidth: 0
Flags: W
HStem: 0 180<325.422 367.315 384 474> 0 120<174.039 324.471> 300 180<324 367.315 384 474> 360 120<174.039 323.961>
VStem: 24 150<120.039 359.961> 324.722 149.278<120.04 180 300 359.961> 384 90<0 60 420 480>
LayerCount: 2
UndoRedoHistory
Layer: 1
Undoes
EndUndoes
Redoes
EndRedoes
EndUndoRedoHistory
Fore
SplineSet
24 120 m 2x4a
 24 360 l 2
 24 450 54 480 144 480 c 2x5a
 324 480 l 2
 354 480 384 450 384 420 c 2
 384 480 l 1
 474 480 l 1x2a
 474 300 l 1
 324 300 l 1x2c
 324 330 l 2
 324 360 324 360 294 360 c 2
 204 360 l 2
 174 360 174 360 174 330 c 2
 174 150 l 2
 174 120 174 120 204 120 c 2
 294 120 l 2x5c
 324 120 324 120 324.721679688 150.452148438 c 2
 325.421875 180 l 1
 474 180 l 1x8c
 474 0 l 1
 384 0 l 1x8a
 384 60 l 2
 384 30 354 0 324 0 c 2
 144 0 l 2
 54 0 24 30 24 120 c 2x4a
EndSplineSet
Validated: 524289
EndChar

StartChar: d
Encoding: 100 100 100
Width: 549
VWidth: 0
Flags: W
HStem: 0 120<171.039 304.315 471 531> 360 120<171.039 304.315> 600 120<261 321>
VStem: 21 150<120.039 359.961> 261 210<600 720> 321 150<120 360 420 600>
LayerCount: 2
UndoRedoHistory
Layer: 1
Undoes
EndUndoes
Redoes
EndRedoes
EndUndoRedoHistory
Fore
SplineSet
471 720 m 1xf8
 471 120 l 1
 531 120 l 1
 531 0 l 1
 381 0 l 2
 351 0 321 30 321 60 c 1xf4
 321 30 291 0 261 0 c 2
 141 0 l 2
 51 0 21 30 21 120 c 2
 21 360 l 2
 21 450 51 480 141 480 c 2
 261 480 l 2xf8
 291 480 321 450 321 420 c 2
 321 600 l 1xf4
 261 600 l 1
 261 720 l 1
 471 720 l 1xf8
321 360 m 1
 201 360 l 2
 171 360 171 360 171 330 c 2
 171 150 l 2
 171 120 171 120 201 120 c 2
 321 120 l 1
 321 360 l 1
EndSplineSet
Validated: 1
EndChar

StartChar: e
Encoding: 101 101 101
Width: 501
VWidth: 0
Flags: W
HStem: 0 150<325.5 368.815 385.5 475.5> 0 120<174.039 325.02> 180 120<174 324> 360 120<174.039 323.957>
VStem: 24 150<120.039 180 300 359.961> 324 151.5<120.039 150 300 359.917> 385.5 90<0 60>
LayerCount: 2
UndoRedoHistory
Layer: 1
Undoes
EndUndoes
Redoes
EndRedoes
EndUndoRedoHistory
Fore
SplineSet
144 480 m 2x7a
 355.5 480 l 2
 445.5 480 475.5 450 475.5 360 c 2
 475.5 180 l 1x7a
 324 180 l 1
 174 180 l 1
 174 150 l 2xbc
 174 120 174 120 204 120 c 2
 294 120 l 2x7c
 324 120 324 120 325.5 150 c 1
 475.5 150 l 1xbc
 475.5 0 l 1
 385.5 0 l 1
 385.5 60 l 2
 385.5 30 355.5 0 325.5 0 c 2xba
 144 0 l 2
 54 0 24 30 24 120 c 2
 24 360 l 2
 24 450 54 480 144 480 c 2x7a
174 330 m 2
 174 300 l 1
 324 300 l 1
 324 330 l 2x3c
 324 360 324 360 291 360 c 2
 204 360 l 2
 174 360 174 360 174 330 c 2
EndSplineSet
Validated: 524289
EndChar

StartChar: f
Encoding: 102 102 102
Width: 579
VWidth: 0
Flags: W
HStem: 0 120<19 79 229 289> 360 120<19 79 229 349> 540 180<409 445.072 469 559> 600 120<229.039 407.279>
VStem: 79 150<120 360 480 599.961> 469 90<630 720>
LayerCount: 2
UndoRedoHistory
Layer: 1
Undoes
EndUndoes
Redoes
EndRedoes
EndUndoRedoHistory
Fore
SplineSet
199 720 m 2xdc
 379 720 l 2xdc
 439 720 469 690 469 630 c 2
 469 720 l 1
 559 720 l 1
 559 540 l 1
 409 540 l 1xec
 409 570 l 2
 409 600 409 600 379 600 c 2
 259 600 l 2
 229 600 229 600 229 570 c 2
 229 480 l 1
 349 480 l 1
 349 360 l 1
 229 360 l 1
 229 120 l 1
 289 120 l 1
 289 0 l 1
 19 0 l 1
 19 120 l 1
 79 120 l 1
 79 360 l 1
 19 360 l 1
 19 480 l 1
 79 480 l 1
 79 600 l 2
 79 690 109 720 199 720 c 2xdc
EndSplineSet
Validated: 1
EndChar

StartChar: g
Encoding: 103 103 103
Width: 548
VWidth: 0
Flags: W
HStem: -240 180<21 111 127.685 171> -240 120<171.039 321> 0 120<171.039 304.315> 360 120<171.039 321 471 531>
VStem: 21 150<-119.961 -60 120.039 359.961> 21 90<-240 -180> 321 150<-120 60 120 360> 411 120<420 480>
LayerCount: 2
UndoRedoHistory
Layer: 1
Undoes
EndUndoes
Redoes
EndRedoes
EndUndoRedoHistory
Fore
SplineSet
141 480 m 2x76
 351 480 l 2
 381.106445312 479.97265625 411 450 411 420 c 2
 411 480 l 1
 531 480 l 1
 531 360 l 1x75
 471 360 l 1
 471 -123 l 2
 471 -210 441 -240 351 -240 c 2x72
 171 -240 l 2xba
 141 -240 111 -210 111 -180 c 2
 111 -240 l 1
 21 -240 l 1xb4
 21 -60 l 1
 171 -60 l 1
 171 -90 l 2xb8
 171 -120 171 -120 201 -120 c 2
 321 -120 l 1
 321 60 l 2
 321 30 291 0 261 0 c 2
 141 0 l 2
 51 0 21 30 21 120 c 2
 21 360 l 2
 21 450 51 480 141 480 c 2x76
201 360 m 2
 171 360 171 360 171 330 c 2
 171 150 l 2
 171 120 171 120 201 120 c 2
 321 120 l 1
 321 360 l 1x3a
 201 360 l 2
EndSplineSet
Validated: 524289
EndChar

StartChar: h
Encoding: 104 104 104
Width: 614
VWidth: 0
Flags: W
HStem: 0 120<22 82 232 262 352 382 532 592> 358.5 120<248.685 381.975> 600 120<22 82>
VStem: 22 210<118.312 120 600 720> 82 150<120 358.463 418.5 600> 382 150<120 358.463>
LayerCount: 2
UndoRedoHistory
Layer: 1
Undoes
EndUndoes
Redoes
EndRedoes
EndUndoRedoHistory
Fore
SplineSet
22 720 m 1xf4
 232 720 l 1xf4
 232 418.5 l 2
 232 448.5 262 478.5 292 478.5 c 2
 412 478.5 l 2
 502 478.5 532 448.5 532 358.5 c 2
 532 120 l 1
 592 120 l 1
 592 0 l 1
 352 0 l 1
 352 120 l 1
 382 120 l 1
 382 330 l 2
 382 358.5 382 358.5 352 358.5 c 2
 262 358.5 l 2
 232 358.5 232 358.5 232 330 c 2xec
 232 118.3125 l 1
 262 120 l 1
 262 0 l 1
 22 0 l 1
 22 120 l 1xf4
 82 120 l 1
 82 600 l 1xec
 22 600 l 1
 22 720 l 1xf4
EndSplineSet
Validated: 524289
EndChar

StartChar: i
Encoding: 105 105 105
Width: 313
VWidth: 0
Flags: W
HStem: 0 120<22 82 232 292> 360 120<22 82> 570 150<103.975 210.025>
VStem: 22 210<360 480> 82 150<120 360 591.975 698.025>
LayerCount: 2
UndoRedoHistory
Layer: 1
Undoes
EndUndoes
Redoes
EndRedoes
EndUndoRedoHistory
Fore
SplineSet
22 480 m 1xf0
 232 480 l 1xf0
 232 120 l 1xe8
 292 120 l 1
 292 0 l 1
 22 0 l 1
 22 120 l 1xf0
 82 120 l 1
 82 360 l 1xe8
 22 360 l 1
 22 480 l 1xf0
232 645 m 0xe8
 232 603.599609375 198.400390625 570 157 570 c 0
 115.599609375 570 82 603.599609375 82 645 c 0
 82 686.400390625 115.599609375 720 157 720 c 0
 198.400390625 720 232 686.400390625 232 645 c 0xe8
EndSplineSet
Validated: 524289
EndChar

StartChar: j
Encoding: 106 106 106
Width: 462
VWidth: 0
Flags: W
HStem: -240 180<0 90 106.685 150> -240 120<150.039 269.993> 360 120<210 270> 570 150<291.975 398.025>
VStem: 0 90<-240 -180> 210 210<360 480> 270 150<-119.966 360 591.975 698.025>
LayerCount: 2
UndoRedoHistory
Layer: 1
Undoes
EndUndoes
Redoes
EndRedoes
EndUndoRedoHistory
Fore
SplineSet
210 480 m 1x7c
 420 480 l 1x7c
 420 -120 l 2
 420 -210 390 -240 300 -240 c 2x7a
 150 -240 l 2
 120 -240 90 -210 90 -180 c 2
 90 -240 l 1
 0 -240 l 1
 0 -60 l 1
 150 -60 l 1xba
 150 -90 l 2
 150 -120 150 -120 180 -120 c 2
 240 -120 l 2
 270 -120 270 -120 270 -94 c 2
 270 360 l 1x7a
 210 360 l 1
 210 480 l 1x7c
420 645 m 0x3a
 420 603.599609375 386.400390625 570 345 570 c 0
 303.599609375 570 270 603.599609375 270 645 c 0
 270 686.400390625 303.599609375 720 345 720 c 0
 386.400390625 720 420 686.400390625 420 645 c 0x3a
EndSplineSet
Validated: 524289
EndChar

StartChar: k
Encoding: 107 107 107
Width: 614
VWidth: 0
Flags: WO
HStem: 0 120<21 81 231 291 485.088 591> 360 120<291 324.197 479.527 591> 600 120<21 81>
VStem: 21 210<600 720> 81 150<270 600>
LayerCount: 2
UndoRedoHistory
Layer: 1
Undoes
EndUndoes
Redoes
EndRedoes
EndUndoRedoHistory
Fore
SplineSet
21 720 m 1xf0
 231 720 l 1xf0
 231 270 l 1
 324.197265625 360 l 1
 291 360 l 1
 291 480 l 1
 591 480 l 1
 591 360 l 1
 479.52734375 360 l 1
 396.717773438 280.03125 l 1
 447.063476562 185.515625 483.870117188 120 531 120 c 2
 591 120 l 1
 591 0 l 1
 471 0 l 2
 411 0 358.298828125 111.301757812 307.952148438 194.3125 c 1
 231 120 l 1xe8
 291 120 l 1
 291 0 l 1
 21 0 l 1
 21 120 l 1xf0
 81 120 l 1
 81 600 l 1xe8
 21 600 l 1
 21 720 l 1xf0
EndSplineSet
Validated: 524289
EndChar

StartChar: l
Encoding: 108 108 108
Width: 374
VWidth: 0
Flags: W
HStem: 0 120<22 82 232 352> 600 120<22 82>
VStem: 22 210<600 720> 82 150<120 600>
LayerCount: 2
UndoRedoHistory
Layer: 1
Undoes
EndUndoes
Redoes
EndRedoes
EndUndoRedoHistory
Fore
SplineSet
22 720 m 1xe0
 232 720 l 1xe0
 232 120 l 1xd0
 352 120 l 1
 352 0 l 1
 22 0 l 1
 22 120 l 1xe0
 82 120 l 1
 82 600 l 1xd0
 22 600 l 1
 22 720 l 1xe0
EndSplineSet
Validated: 1
EndChar

StartChar: m
Encoding: 109 109 109
Width: 855
VWidth: 0
Flags: W
HStem: 0 120<22 82 232 262 322 351.999 502 532 591.999 621.999 771.999 831.999> 360.001 119.999<22 82 248.685 351.96 518.685 621.96>
VStem: 82 150<119.999 359.999> 322 210<0 120> 351.999 150.001<120.126 359.96> 621.999 150<120 359.962>
LayerCount: 2
UndoRedoHistory
Layer: 1
Undoes
EndUndoes
Redoes
EndRedoes
EndUndoRedoHistory
Fore
SplineSet
22 480 m 1xf4
 232 480 l 1
 232 420 l 2
 232 450 262 480 292 480 c 2
 442 480 l 2
 472 480 502 450 502 420 c 1
 502 450 532 480 561.999023438 480 c 2
 652 480 l 2
 742 480 771.999023438 450 771.999023438 360.000976562 c 2
 771.999023438 120 l 1
 831.999023438 120 l 1
 831.999023438 0 l 1
 591.999023438 0 l 1
 591.999023438 120 l 1
 621.999023438 120 l 1
 621.999023438 330.000976562 l 2
 621.999023438 360.000976562 621.999023438 360.000976562 591.999023438 360.000976562 c 2
 502 360.000976562 l 1
 502 120 l 1xec
 532 120 l 1
 532 0 l 1
 322 0 l 1
 322 120 l 1xf4
 351.999023438 120.125976562 l 1
 351.999023438 329.999023438 l 2xec
 351.999023438 359.999023438 351.999023438 359.999023438 322 359.999023438 c 2
 232 359.999023438 l 1
 232 119.997070312 l 1
 262 119.997070312 l 1
 262 -0.001953125 l 1
 22 0 l 1
 22 119.999023438 l 1
 82 119.999023438 l 1
 82 360.000976562 l 1
 22 360.000976562 l 1
 22 480 l 1xf4
EndSplineSet
Validated: 524289
EndChar

StartChar: n
Encoding: 110 110 110
Width: 615
VWidth: 0
Flags: W
HStem: 0 120<22 82 232 262 352 382 532 592> 360 120<22 82 248.685 381.961>
VStem: 82 150<120 360> 382 150<120 359.961>
LayerCount: 2
UndoRedoHistory
Layer: 1
Undoes
EndUndoes
Redoes
EndRedoes
EndUndoRedoHistory
Fore
SplineSet
22 480 m 1
 232 480 l 1
 232 420 l 2
 232 450 262 480 292 480 c 2
 412 480 l 2
 502 480 532 450 532 360 c 2
 532 120 l 1
 592 120 l 1
 592 0 l 1
 352 0 l 1
 352 120 l 1
 382 120 l 1
 382 330 l 2
 382 360 382 360 352 360 c 2
 232 360 l 1
 232 120 l 1
 262 120 l 1
 262 0 l 1
 22 0 l 1
 22 120 l 1
 82 120 l 1
 82 360 l 1
 22 360 l 1
 22 480 l 1
EndSplineSet
Validated: 1
EndChar

StartChar: o
Encoding: 111 111 111
Width: 500
VWidth: 0
Flags: W
HStem: 0.00195312 119.996<173.569 318.928> 360 120.002<176.57 320.584>
VStem: 25 150<121.123 358.43> 320.498 154.502<121.566 358.874>
LayerCount: 2
UndoRedoHistory
Layer: 1
Undoes
EndUndoes
Redoes
EndRedoes
EndUndoRedoHistory
Fore
SplineSet
148.000976562 480.001953125 m 2
 358.001953125 480.001953125 l 2
 447.776367188 480.001953125 474.325195312 450 475 360 c 2
 475 120 l 1
 472.302734375 29.9990234375 446.196289062 -0.0009765625 355 0 c 2
 147.696289062 0.001953125 l 2
 55 0.0009765625 25 30.0009765625 25 120.000976562 c 2
 25 360 l 2
 25 450 58.001953125 480.001953125 148.000976562 480.001953125 c 2
235 360 m 2
 175 360 175 360 175 300 c 1
 171.999023438 179.997070312 l 1
 171.999023438 119.998046875 171.999023438 119.998046875 231.998046875 119.998046875 c 2
 260.498046875 119.99609375 l 2
 320.498046875 119.99609375 320.498046875 119.99609375 320.498046875 179.995117188 c 2
 322 299.997070312 l 1
 321.627929688 360 323.5 359.998046875 263.5 359.998046875 c 2
 235 360 l 2
EndSplineSet
Validated: 524321
EndChar

StartChar: p
Encoding: 112 112 112
Width: 549
VWidth: 0
Flags: W
HStem: -240 120<19 79 229 289> 0 120<229 378.961> 360 120<19 79 245.685 378.961>
VStem: 79 150<-120 0 120 360> 379 150<120.039 359.961>
LayerCount: 2
UndoRedoHistory
Layer: 1
Undoes
EndUndoes
Redoes
EndRedoes
EndUndoRedoHistory
Fore
SplineSet
19 480 m 1
 229 480 l 1
 229 420 l 2
 229 450 259 480 289 480 c 2
 409 480 l 2
 499 480 529 450 529 360 c 2
 529 120 l 2
 529 30 499 0 409 0 c 2
 229 0 l 1
 229 -120 l 1
 289 -120 l 1
 289 -240 l 1
 19 -240 l 1
 19 -120 l 1
 79 -120 l 1
 79 360 l 1
 19 360 l 1
 19 480 l 1
229 360 m 1
 229 120 l 1
 349 120 l 2
 379 120 379 120 379 150 c 2
 379 330 l 2
 379 360 379 360 349 360 c 2
 229 360 l 1
EndSplineSet
Validated: 1
EndChar

StartChar: q
Encoding: 113 113 113
Width: 549
VWidth: 0
Flags: W
HStem: -240 120<471 531> 0 120<171.039 321> 360 120<171.039 304.315>
VStem: 21 150<120.039 359.961> 321 210<-240 -120> 321 150<-120 0 120 360 420 480>
LayerCount: 2
UndoRedoHistory
Layer: 1
Undoes
EndUndoes
Redoes
EndRedoes
EndUndoRedoHistory
Fore
SplineSet
471 480 m 1xf4
 471 -120 l 1xf4
 531 -120 l 1
 531 -240 l 1
 321 -240 l 1xf8
 321 0 l 1
 141 0 l 2
 51 0 21 30 21 120 c 2
 21 360 l 2
 21 450 51 480 141 480 c 2
 261 480 l 2
 291 480 321 450 321 420 c 2
 321 480 l 1
 471 480 l 1xf4
321 360 m 1
 201 360 l 2
 171 360 171 360 171 330 c 2
 171 150 l 2
 171 120 171 120 201 120 c 2
 321 120 l 1
 321 360 l 1
EndSplineSet
Validated: 1
EndChar

StartChar: r
Encoding: 114 114 114
Width: 528
VWidth: 0
Flags: W
HStem: 0 120<24 84 234 294> 300 180<354 397.315 414 504> 360 120<24 84 250.685 353.961>
VStem: 84 150<120 343.315> 414 90<420 480>
LayerCount: 2
UndoRedoHistory
Layer: 1
Undoes
EndUndoes
Redoes
EndRedoes
EndUndoRedoHistory
Fore
SplineSet
24 480 m 1xb8
 234 480 l 1
 234 420 l 2
 234 450 264 480 294 480 c 2xb8
 354 480 l 2
 384 480 414 450 414 420 c 2
 414 480 l 1
 504 480 l 1
 504 300 l 1
 354 300 l 1xd8
 354 330 l 2
 354 360 354 360 324 360 c 2
 294 360 l 2xb8
 264 360 234 330 234 300 c 2xd8
 234 120 l 1
 294 120 l 1
 294 0 l 1
 24 0 l 1
 24 120 l 1
 84 120 l 1
 84 360 l 1
 24 360 l 1
 24 480 l 1xb8
EndSplineSet
Validated: 1
EndChar

StartChar: s
Encoding: 115 115 115
Width: 499
VWidth: 0
Flags: W
HStem: -0.282227 150.376<26.7783 115.272 139.276 175.179> -0.282227 120.282<177.187 325.445> 178.598 120.377<175.32 325.587> 329.155 150<323.108 359.387 383.391 475.272> 358.601 120.555<175.242 321.476>
VStem: 20 155.272<120.039 150 299.048 358.677> 26.7783 88.4941<0 90> 323.108 152.164<119.737 178.707 330 358.898> 383.391 91.8818<388.872 479.155>
LayerCount: 2
UndoRedoHistory
Layer: 1
Undoes
EndUndoes
Redoes
EndRedoes
EndUndoRedoHistory
Fore
SplineSet
140.376953125 479.155273438 m 2x6c
 293.108398438 479.155273438 l 2x6c
 353.296875 479.155273438 383.390625 449.060546875 383.390625 388.872070312 c 2
 383.390625 479.155273438 l 1
 475.272460938 480 l 1x3480
 475.272460938 330 l 1
 323.108398438 329.155273438 l 1x31
 323.108398438 359.249023438 320.283203125 358.966796875 290.188476562 358.966796875 c 2
 200.66015625 358.600585938 l 2
 173.108398438 359.155273438 175.272460938 360 175.272460938 330 c 0
 175.272460938 300 175.124023438 299.1796875 202.541992188 298.974609375 c 2
 353.390625 298.872070312 l 2
 443.673828125 298.872070312 475.272460938 270.282226562 475.272460938 180 c 1
 478.663085938 120.094726562 l 1
 478.663085938 29.8115234375 448.568359375 -0.2822265625 358.286132812 -0.2822265625 c 2
 205.5546875 -0.2822265625 l 2x6c80
 145.3671875 -0.2822265625 115.272460938 29.8115234375 115.272460938 90 c 2
 115.272460938 -0.2822265625 l 1
 26.7783203125 0 l 1
 25.2724609375 150 l 1
 175.178710938 150.09375 l 1xa280
 175.178710938 120 175.178710938 120 205.272460938 120 c 2
 295.5546875 119.717773438 l 2
 325.649414062 119.717773438 325.272460938 120 325.5546875 149.717773438 c 0
 325.837890625 179.434570312 325.272460938 180 293.107421875 178.314453125 c 1
 142.258789062 178.59765625 l 2
 51.9765625 178.596679688 21.8818359375 208.69140625 21.8818359375 298.974609375 c 1
 20 358.600585938 l 1
 20 447.379882812 50.0947265625 479.155273438 140.376953125 479.155273438 c 2x6c
EndSplineSet
Validated: 524321
EndChar

StartChar: t
Encoding: 116 116 116
Width: 488
VWidth: 0
Flags: W
HStem: 0 180<317 360.315 377 467> 0 120<227.039 316.961> 360 120<17 77 227 347>
VStem: 77 150<120.039 360 480 660> 377 90<0 60>
LayerCount: 2
UndoRedoHistory
Layer: 1
Undoes
EndUndoes
Redoes
EndRedoes
EndUndoRedoHistory
Fore
SplineSet
77 660 m 1x78
 227 660 l 1
 227 480 l 1
 347 480 l 1
 347 360 l 1
 227 360 l 1
 227 150 l 2
 227 120 227 120 257 120 c 2
 287 120 l 2x78
 317 120 317 120 317 150 c 2
 317 180 l 1
 467 180 l 1
 467 0 l 1
 377 0 l 1
 377 60 l 2
 377 30 347 0 317 0 c 2xb8
 197 0 l 2
 107 0 77 30 77 120 c 2
 77 240 l 1
 77 360 l 1
 17 360 l 1
 17 480 l 1
 77 480 l 1
 77 660 l 1x78
EndSplineSet
Validated: 1
EndChar

StartChar: u
Encoding: 117 117 117
Width: 585
VWidth: 0
Flags: W
HStem: 0 120<232.039 335.315 502 562> 360 120<22 82 232 262 322 352 502 562>
VStem: 82 150<120.039 360> 352 150<120 360>
LayerCount: 2
UndoRedoHistory
Layer: 1
Undoes
EndUndoes
Redoes
EndRedoes
EndUndoRedoHistory
Fore
SplineSet
562 0 m 1
 352 0 l 1
 352 60 l 2
 352 30 322 0 292 0 c 2
 202 0 l 2
 112 0 82 30 82 120 c 2
 82 360 l 1
 22 360 l 1
 22 480 l 1
 262 480 l 1
 262 360 l 1
 232 360 l 1
 232 150 l 2
 232 120 232 120 262 120 c 2
 352 120 l 1
 352 360 l 1
 322 360 l 1
 322 480 l 1
 562 480 l 1
 562 360 l 1
 502 360 l 1
 502 120 l 1
 562 120 l 1
 562 0 l 1
EndSplineSet
Validated: 1
EndChar

StartChar: v
Encoding: 118 118 118
Width: 676
VWidth: 0
Flags: W
HStem: 0 21G<281.333 396.701> 360 120<23 83 233 293 383 443 593 653>
LayerCount: 2
UndoRedoHistory
Layer: 1
Undoes
EndUndoes
Redoes
EndRedoes
EndUndoRedoHistory
Fore
SplineSet
653 480 m 1
 653 360 l 1
 593 360 l 1
 385.154296875 0 l 1
 293 0 l 1
 83 360 l 1
 23 360 l 1
 23 480 l 1
 293 480 l 1
 293 360 l 1
 233 360 l 1
 338 178.134765625 l 1
 443 360 l 1
 383 360 l 1
 383 480 l 1
 653 480 l 1
EndSplineSet
Validated: 524289
EndChar

StartChar: w
Encoding: 119 119 119
Width: 826
VWidth: 0
Flags: W
HStem: 0 21G<220.427 330.279 490.427 605.573> 360 120<23 96.6768 246.677 293 533 579.323 729.323 803>
LayerCount: 2
UndoRedoHistory
Layer: 1
Undoes
EndUndoes
Redoes
EndRedoes
EndUndoRedoHistory
Fore
SplineSet
23 360 m 1
 23 480 l 1
 293 480 l 1
 293 360 l 1
 246.676757812 360 l 1
 290.352539062 240 l 1
 377.706054688 480 l 1
 443 480 l 1
 533 232.7265625 l 1
 579.323242188 360 l 1
 533 360 l 1
 533 480 l 1
 803 480 l 1
 803 360 l 1
 729.323242188 360 l 1
 598.293945312 0 l 1
 497.706054688 0 l 1
 410.352539062 240 l 1
 323 0 l 1
 227.706054688 0 l 1
 96.6767578125 360 l 1
 23 360 l 1
EndSplineSet
Validated: 524289
EndChar

StartChar: x
Encoding: 120 120 120
Width: 558
VWidth: 0
Flags: W
HStem: 0 120<30 117.186 441.556 540> 360 120<30 117.186 441.556 540>
LayerCount: 2
UndoRedoHistory
Layer: 1
Undoes
EndUndoes
Redoes
EndRedoes
EndUndoRedoHistory
Fore
SplineSet
30 480 m 1
 180 480 l 1
 279.370117188 343.228515625 l 1
 378.740234375 480 l 1
 540 480 l 1
 540 360 l 1
 441.555664062 360 l 1
 354.370117188 240 l 1
 441.555664062 120 l 1
 540 120 l 1
 540 0 l 1
 378.740234375 0 l 1
 279.370117188 136.771484375 l 1
 180 0 l 1
 30 0 l 1
 30 120 l 1
 117.185546875 120 l 1
 204.370117188 240 l 1
 117.185546875 360 l 1
 30 360 l 1
 30 480 l 1
EndSplineSet
Validated: 524289
EndChar

StartChar: y
Encoding: 121 121 121
Width: 584
VWidth: 0
Flags: W
HStem: -240 180<82 172 188.685 232> -240 120<232.039 352> 0 120<232.039 335.315> 360 120<22 82 232 262 322 352 502 562>
VStem: 82 150<-119.961 -60 120.039 360> 82 90<-240 -180> 352 150<-120 60 120 360>
LayerCount: 2
UndoRedoHistory
Layer: 1
Undoes
EndUndoes
Redoes
EndRedoes
EndUndoRedoHistory
Fore
SplineSet
262 -120 m 2x7a
 352 -120 l 1
 352 60 l 2
 352 30 322 0 292 0 c 2
 202 0 l 2
 112 0 82 30 82 120 c 2x76
 82 360 l 1
 22 360 l 1
 22 480 l 1
 262 480 l 1
 262 360 l 1
 232 360 l 1
 232 150 l 2
 232 120 232 120 262 120 c 2
 352 120 l 1
 352 360 l 1
 322 360 l 1
 322 480 l 1
 562 480 l 1
 562 360 l 1
 502 360 l 1
 502 -123 l 2
 502 -210 472 -240 382 -240 c 2x7a
 232 -240 l 2xba
 202 -240 172 -210 172 -180 c 2
 172 -240 l 1
 82 -240 l 1xb6
 82 -60 l 1
 232 -60 l 1xba
 232 -90 l 2
 232 -120 232 -120 262 -120 c 2x7a
EndSplineSet
Validated: 1
EndChar

StartChar: z
Encoding: 122 122 122
Width: 470
VWidth: 0
Flags: W
HStem: 0 180<295.367 331.439 356.879 445.367> 0 120<175.367 293.646> 300 180<25.001 115 139.294 175.367> 360 120<177.087 295.367>
VStem: 25.001 90.3652<390 480> 295.367 150<120.039 180> 356.879 88.4883<0 90>
LayerCount: 2
UndoRedoHistory
Layer: 1
Undoes
EndUndoes
Redoes
EndRedoes
EndUndoRedoHistory
Fore
SplineSet
25.0009765625 480 m 1x2c
 115 480 l 1x2c
 115.366210938 390 l 2
 115.366210938 450 145.366210938 480 205.366210938 480 c 2
 445.3671875 480 l 1
 445.3671875 360 l 1
 175.3671875 120 l 1
 265.3671875 120 l 2x5a
 295.3671875 120 295.3671875 120 295.3671875 150 c 2
 295.3671875 180 l 1
 445.3671875 180 l 1x8c
 445.3671875 0 l 1
 356.87890625 0 l 1x8a
 355.3671875 90 l 1
 355.3671875 30 325.3671875 0 265.3671875 0 c 2
 25.3671875 0 l 1
 25.3671875 120 l 1
 295.3671875 360 l 1
 205 360 l 2x5c
 175.3671875 360 175.3671875 360 175 330 c 2
 175.3671875 300 l 1
 25 300 l 1
 25.0009765625 480 l 1x2c
EndSplineSet
Validated: 524289
EndChar

